<svg width="20" height="20" viewBox="0 0 20 20" fill="none" xmlns="http://www.w3.org/2000/svg">
<path d="M9.99996 1.66667C5.40829 1.66667 1.66663 5.40833 1.66663 10C1.66663 14.5917 5.40829 18.3333 9.99996 18.3333C14.5916 18.3333 18.3333 14.5917 18.3333 10C18.3333 5.40833 14.5916 1.66667 9.99996 1.66667ZM13.3333 10.625H10.625V13.3333C10.625 13.675 10.3416 13.9583 9.99996 13.9583C9.65829 13.9583 9.37496 13.675 9.37496 13.3333V10.625H6.66663C6.32496 10.625 6.04163 10.3417 6.04163 10C6.04163 9.65833 6.32496 9.375 6.66663 9.375H9.37496V6.66667C9.37496 6.325 9.65829 6.04167 9.99996 6.04167C10.3416 6.04167 10.625 6.325 10.625 6.66667V9.375H13.3333C13.675 9.375 13.9583 9.65833 13.9583 10C13.9583 10.3417 13.675 10.625 13.3333 10.625Z" fill="#020202"/>
</svg>
