<svg width="23" height="23" viewBox="0 0 23 23" fill="none" xmlns="http://www.w3.org/2000/svg">
<path d="M11.9445 20.2917C17.0071 20.2917 21.1112 16.1876 21.1112 11.125C21.1112 6.06242 17.0071 1.95836 11.9445 1.95836C6.88189 1.95836 2.77783 6.06242 2.77783 11.125C2.77783 16.1876 6.88189 20.2917 11.9445 20.2917Z" stroke="#020202" stroke-width="1.5" stroke-linecap="round" stroke-linejoin="round"/>
<path d="M9.2771 8.37503C9.49261 7.76239 9.91799 7.2458 10.4779 6.91674C11.0378 6.58768 11.6961 6.46739 12.3362 6.57718C12.9763 6.68698 13.5568 7.01976 13.9751 7.5166C14.3933 8.01343 14.6222 8.64226 14.6213 9.2917C14.6213 11.125 11.8713 12.0417 11.8713 12.0417" stroke="#020202" stroke-width="1.5" stroke-linecap="round" stroke-linejoin="round"/>
<path d="M11.9446 15.7084H11.9546" stroke="#020202" stroke-width="1.5" stroke-linecap="round" stroke-linejoin="round"/>
</svg>
