<svg width="23" height="23" viewBox="0 0 23 23" fill="none" xmlns="http://www.w3.org/2000/svg">
<path d="M19.2331 11.7602V20.9269H4.56641V11.7602" stroke="#020202" stroke-width="1.5" stroke-linecap="round" stroke-linejoin="round"/>
<path d="M21.0662 7.17686H2.73291V11.7602H21.0662V7.17686Z" stroke="#020202" stroke-width="1.5" stroke-linecap="round" stroke-linejoin="round"/>
<path d="M11.8997 20.9269V7.17686" stroke="#020202" stroke-width="1.5" stroke-linecap="round" stroke-linejoin="round"/>
<path d="M11.8996 7.17685H7.77458C7.16679 7.17685 6.58389 6.93541 6.15412 6.50564C5.72435 6.07587 5.48291 5.49298 5.48291 4.88519C5.48291 4.2774 5.72435 3.69451 6.15412 3.26473C6.58389 2.83496 7.16679 2.59352 7.77458 2.59352C10.9829 2.59352 11.8996 7.17685 11.8996 7.17685Z" stroke="#020202" stroke-width="1.5" stroke-linecap="round" stroke-linejoin="round"/>
<path d="M11.8997 7.17685H16.0247C16.6324 7.17685 17.2153 6.93541 17.6451 6.50564C18.0749 6.07587 18.3163 5.49298 18.3163 4.88519C18.3163 4.2774 18.0749 3.69451 17.6451 3.26473C17.2153 2.83496 16.6324 2.59352 16.0247 2.59352C12.8163 2.59352 11.8997 7.17685 11.8997 7.17685Z" stroke="#020202" stroke-width="1.5" stroke-linecap="round" stroke-linejoin="round"/>
</svg>
