<svg width="22" height="22" viewBox="0 0 22 22" fill="none" xmlns="http://www.w3.org/2000/svg">
<path d="M5.66488 20.8542C5.57322 20.8542 5.47238 20.845 5.38988 20.8358L3.40071 20.5608C2.44738 20.4325 1.58571 19.58 1.43905 18.6083L1.16405 16.6008C1.07238 15.9592 1.34738 15.125 1.80571 14.6575L5.82988 10.6333C5.17905 8.03 5.93072 5.28 7.84655 3.3825C10.8165 0.421666 15.6474 0.4125 18.6265 3.3825C20.0657 4.82167 20.854 6.7375 20.854 8.7725C20.854 10.8075 20.0657 12.7233 18.6265 14.1625C16.7015 16.0692 13.9607 16.8208 11.3757 16.1608L7.34238 20.185C6.95738 20.5883 6.26988 20.8542 5.66488 20.8542ZM13.2274 2.53C11.6232 2.53 10.0282 3.135 8.80905 4.35417C7.15905 5.995 6.56321 8.39667 7.25072 10.6333C7.32405 10.8808 7.25988 11.1375 7.07655 11.3208L2.76821 15.6292C2.61238 15.785 2.48405 16.1883 2.51155 16.3992L2.78655 18.4067C2.84155 18.755 3.21738 19.1492 3.56571 19.195L5.56405 19.47C5.78405 19.5067 6.18738 19.3783 6.34321 19.2225L10.6699 14.905C10.8532 14.7217 11.119 14.6667 11.3574 14.74C13.5665 15.4367 15.9774 14.8408 17.6274 13.1908C18.8007 12.0175 19.4515 10.4408 19.4515 8.7725C19.4515 7.095 18.8007 5.5275 17.6274 4.35417C16.4357 3.14417 14.8315 2.53 13.2274 2.53Z" fill="#020202"/>
<path d="M8.42416 18.8283C8.24999 18.8283 8.07582 18.7642 7.93832 18.6267L5.82999 16.5183C5.56416 16.2525 5.56416 15.8125 5.82999 15.5467C6.09582 15.2808 6.53582 15.2808 6.80166 15.5467L8.90999 17.655C9.17582 17.9208 9.17582 18.3608 8.90999 18.6267C8.77249 18.7642 8.59832 18.8283 8.42416 18.8283Z" fill="#020202"/>
<path d="M13.2917 10.7708C12.1551 10.7708 11.2292 9.845 11.2292 8.70833C11.2292 7.57167 12.1551 6.64583 13.2917 6.64583C14.4284 6.64583 15.3542 7.57167 15.3542 8.70833C15.3542 9.845 14.4284 10.7708 13.2917 10.7708ZM13.2917 8.02083C12.9159 8.02083 12.6042 8.3325 12.6042 8.70833C12.6042 9.08417 12.9159 9.39583 13.2917 9.39583C13.6676 9.39583 13.9792 9.08417 13.9792 8.70833C13.9792 8.3325 13.6676 8.02083 13.2917 8.02083Z" fill="#020202"/>
</svg>
