<svg width="22" height="22" viewBox="0 0 22 22" fill="none" xmlns="http://www.w3.org/2000/svg">
<path d="M9.16675 11.9167C9.56041 12.443 10.0627 12.8784 10.6394 13.1935C11.2162 13.5086 11.854 13.696 12.5095 13.743C13.1651 13.7899 13.823 13.6953 14.4388 13.4656C15.0546 13.2359 15.6138 12.8765 16.0784 12.4117L18.8284 9.66167C19.6633 8.79724 20.1253 7.63948 20.1148 6.43775C20.1044 5.23601 19.6224 4.08646 18.7726 3.23667C17.9228 2.38688 16.7732 1.90486 15.5715 1.89441C14.3698 1.88397 13.212 2.34595 12.3476 3.18084L10.7709 4.74834" stroke="#020202" stroke-width="1.5" stroke-linecap="round" stroke-linejoin="round"/>
<path d="M12.8333 10.0833C12.4396 9.55705 11.9374 9.12158 11.3606 8.80647C10.7838 8.49136 10.1461 8.30397 9.49051 8.25703C8.83496 8.21008 8.17698 8.30466 7.56121 8.53436C6.94543 8.76407 6.38625 9.12352 5.92161 9.58833L3.17161 12.3383C2.33671 13.2028 1.87474 14.3605 1.88518 15.5623C1.89563 16.764 2.37765 17.9135 3.22744 18.7633C4.07722 19.6131 5.22678 20.0951 6.42852 20.1056C7.63025 20.116 8.78801 19.6541 9.65244 18.8192L11.2199 17.2517" stroke="#020202" stroke-width="1.5" stroke-linecap="round" stroke-linejoin="round"/>
</svg>
