<svg width="79" height="79" viewBox="0 0 79 79" fill="none" xmlns="http://www.w3.org/2000/svg">
<g filter="url(#filter0_d_22_272)">
<rect x="12" y="8" width="55" height="55" rx="27.5" fill="#020202"/>
<path d="M36 27H33C32.4696 27 31.9609 27.2107 31.5858 27.5858C31.2107 27.9609 31 28.4696 31 29V32M49 32V29C49 28.4696 48.7893 27.9609 48.4142 27.5858C48.0391 27.2107 47.5304 27 47 27H44M44 45H47C47.5304 45 48.0391 44.7893 48.4142 44.4142C48.7893 44.0391 49 43.5304 49 43V40M31 40V43C31 43.5304 31.2107 44.0391 31.5858 44.4142C31.9609 44.7893 32.4696 45 33 45H36" stroke="white" stroke-width="2" stroke-linecap="round" stroke-linejoin="round"/>
</g>
<defs>
<filter id="filter0_d_22_272" x="0" y="0" width="79" height="79" filterUnits="userSpaceOnUse" color-interpolation-filters="sRGB">
<feFlood flood-opacity="0" result="BackgroundImageFix"/>
<feColorMatrix in="SourceAlpha" type="matrix" values="0 0 0 0 0 0 0 0 0 0 0 0 0 0 0 0 0 0 127 0" result="hardAlpha"/>
<feOffset dy="4"/>
<feGaussianBlur stdDeviation="6"/>
<feColorMatrix type="matrix" values="0 0 0 0 0 0 0 0 0 0 0 0 0 0 0 0 0 0 0.5 0"/>
<feBlend mode="normal" in2="BackgroundImageFix" result="effect1_dropShadow_22_272"/>
<feBlend mode="normal" in="SourceGraphic" in2="effect1_dropShadow_22_272" result="shape"/>
</filter>
</defs>
</svg>
