<svg width="24" height="24" viewBox="0 0 24 24" fill="none" xmlns="http://www.w3.org/2000/svg">
<path d="M13.2 18H15.6V20.4H13.2V18ZM18 18H20.4V20.4H18V18ZM13.2 13.2H15.6V15.6H13.2V13.2ZM15.6 15.6H18V18H15.6V15.6ZM18 13.2H20.4V15.6H18V13.2ZM3.59998 6.00001C3.59998 5.36349 3.85283 4.75304 4.30292 4.30295C4.75301 3.85286 5.36346 3.60001 5.99998 3.60001H8.39998C9.03649 3.60001 9.64694 3.85286 10.097 4.30295C10.5471 4.75304 10.8 5.36349 10.8 6.00001V8.40001C10.8 9.03653 10.5471 9.64697 10.097 10.0971C9.64694 10.5471 9.03649 10.8 8.39998 10.8H5.99998C5.36346 10.8 4.75301 10.5471 4.30292 10.0971C3.85283 9.64697 3.59998 9.03653 3.59998 8.40001V6.00001ZM5.99998 4.80001C5.68172 4.80001 5.37649 4.92643 5.15145 5.15148C4.9264 5.37652 4.79998 5.68175 4.79998 6.00001V8.40001C4.79998 8.71827 4.9264 9.02349 5.15145 9.24853C5.37649 9.47358 5.68172 9.60001 5.99998 9.60001H8.39998C8.71824 9.60001 9.02346 9.47358 9.2485 9.24853C9.47355 9.02349 9.59998 8.71827 9.59998 8.40001V6.00001C9.59998 5.68175 9.47355 5.37652 9.2485 5.15148C9.02346 4.92643 8.71824 4.80001 8.39998 4.80001H5.99998ZM5.99998 6.00001H8.39998V8.40001H5.99998V6.00001ZM3.59998 15.6C3.59998 14.9635 3.85283 14.353 4.30292 13.9029C4.75301 13.4529 5.36346 13.2 5.99998 13.2H8.39998C9.03649 13.2 9.64694 13.4529 10.097 13.9029C10.5471 14.353 10.8 14.9635 10.8 15.6V18C10.8 18.6365 10.5471 19.247 10.097 19.6971C9.64694 20.1471 9.03649 20.4 8.39998 20.4H5.99998C5.36346 20.4 4.75301 20.1471 4.30292 19.6971C3.85283 19.247 3.59998 18.6365 3.59998 18V15.6ZM5.99998 14.4C5.68172 14.4 5.37649 14.5264 5.15145 14.7515C4.9264 14.9765 4.79998 15.2817 4.79998 15.6V18C4.79998 18.3183 4.9264 18.6235 5.15145 18.8485C5.37649 19.0736 5.68172 19.2 5.99998 19.2H8.39998C8.71824 19.2 9.02346 19.0736 9.2485 18.8485C9.47355 18.6235 9.59998 18.3183 9.59998 18V15.6C9.59998 15.2817 9.47355 14.9765 9.2485 14.7515C9.02346 14.5264 8.71824 14.4 8.39998 14.4H5.99998ZM5.99998 15.6H8.39998V18H5.99998V15.6ZM13.2 6.00001C13.2 5.36349 13.4528 4.75304 13.9029 4.30295C14.353 3.85286 14.9635 3.60001 15.6 3.60001H18C18.6365 3.60001 19.2469 3.85286 19.697 4.30295C20.1471 4.75304 20.4 5.36349 20.4 6.00001V8.40001C20.4 9.03653 20.1471 9.64697 19.697 10.0971C19.2469 10.5471 18.6365 10.8 18 10.8H15.6C14.9635 10.8 14.353 10.5471 13.9029 10.0971C13.4528 9.64697 13.2 9.03653 13.2 8.40001V6.00001ZM15.6 4.80001C15.2817 4.80001 14.9765 4.92643 14.7514 5.15148C14.5264 5.37652 14.4 5.68175 14.4 6.00001V8.40001C14.4 8.71827 14.5264 9.02349 14.7514 9.24853C14.9765 9.47358 15.2817 9.60001 15.6 9.60001H18C18.3182 9.60001 18.6235 9.47358 18.8485 9.24853C19.0735 9.02349 19.2 8.71827 19.2 8.40001V6.00001C19.2 5.68175 19.0735 5.37652 18.8485 5.15148C18.6235 4.92643 18.3182 4.80001 18 4.80001H15.6ZM15.6 6.00001H18V8.40001H15.6V6.00001Z" fill="#9AA0A6"/>
</svg>
